<svg width="41" height="41" viewBox="0 0 41 41" fill="none" xmlns="http://www.w3.org/2000/svg">
<rect x="0.178467" y="0.222656" width="40" height="40" rx="20" fill="url(#paint0_linear_248_415)"/>
<path fill-rule="evenodd" clip-rule="evenodd" d="M20.4799 24.0821C17.345 24.0821 14.1239 26.1684 13.0429 29.017C12.8367 29.5605 12.2288 29.834 11.6853 29.6276C11.1418 29.4214 10.8684 28.8135 11.0746 28.2701C12.4921 24.5348 16.5466 21.9768 20.4799 21.9768C24.4132 21.9768 28.4675 24.5348 29.885 28.2701C30.0913 28.8135 29.8178 29.4214 29.2744 29.6276C28.7308 29.834 28.123 29.5605 27.9167 29.017C26.8357 26.1684 23.6148 24.0821 20.4799 24.0821Z" fill="#F3EEFC"/>
<path fill-rule="evenodd" clip-rule="evenodd" d="M20.4799 12.854C18.9942 12.854 17.7898 14.0584 17.7898 15.5441C17.7898 17.0298 18.9942 18.2342 20.4799 18.2342C21.9656 18.2342 23.1699 17.0298 23.1699 15.5441C23.1699 14.0584 21.9656 12.854 20.4799 12.854ZM15.6846 15.5441C15.6846 12.8957 17.8315 10.7488 20.4799 10.7488C23.1282 10.7488 25.2752 12.8957 25.2752 15.5441C25.2752 18.1925 23.1282 20.3394 20.4799 20.3394C17.8315 20.3394 15.6846 18.1925 15.6846 15.5441Z" fill="#F3EEFC"/>
<defs>
<linearGradient id="paint0_linear_248_415" x1="0.178467" y1="40.2227" x2="40.1785" y2="0.222657" gradientUnits="userSpaceOnUse">
<stop offset="0.1389" stop-color="#6F25F5"/>
<stop offset="0.9306" stop-color="#AE1E55" stop-opacity="0"/>
</linearGradient>
</defs>
</svg>
