<svg width="29" height="29" viewBox="0 0 29 29" fill="none" xmlns="http://www.w3.org/2000/svg">
<rect x="0.678467" y="0.722656" width="27" height="27" rx="13.5" fill="url(#paint0_linear_248_400)"/>
<rect x="0.678467" y="0.722656" width="27" height="27" rx="13.5" stroke="#303030"/>
<path d="M9.45208 11.0834C2.59133 15.8651 6.08409 22.7674 7.9552 22.9753C7.8859 21.9358 8.03004 19.4826 9.16102 17.9857C9.16102 18.6094 9.53524 24.2227 15.4812 24.2227C22.7577 24.2227 25.3773 17.0709 20.4292 11.7486C19.265 14.9088 17.6018 15.9483 16.687 16.6551C20.6371 8.9212 14.2337 5.34532 11.6974 4.22266C12.1963 5.84428 13.1022 8.53934 9.45208 11.0834Z" fill="#F3EEFC"/>
<defs>
<linearGradient id="paint0_linear_248_400" x1="0.178467" y1="28.2227" x2="28.1785" y2="0.222657" gradientUnits="userSpaceOnUse">
<stop stop-color="#6F25F5"/>
<stop offset="1" stop-color="#5014BD"/>
</linearGradient>
</defs>
</svg>
