<svg width="21" height="21" viewBox="0 0 21 21" fill="none" xmlns="http://www.w3.org/2000/svg">
<path d="M16.7375 10.2227V18.9183H2.82446V10.2227" stroke="#F3EEFC" stroke-width="1.73913" stroke-linecap="round" stroke-linejoin="round"/>
<path d="M18.4768 5.87488H1.08545V10.2227H18.4768V5.87488Z" stroke="#F3EEFC" stroke-width="1.73913" stroke-linecap="round" stroke-linejoin="round"/>
<path d="M9.78101 18.9184V5.87488" stroke="#F3EEFC" stroke-width="1.73913" stroke-linecap="round" stroke-linejoin="round"/>
<path d="M9.78107 5.8748H5.868C5.29145 5.8748 4.7385 5.64577 4.33081 5.23808C3.92313 4.83039 3.69409 4.27745 3.69409 3.70089C3.69409 3.12433 3.92313 2.57139 4.33081 2.1637C4.7385 1.75601 5.29145 1.52698 5.868 1.52698C8.91151 1.52698 9.78107 5.8748 9.78107 5.8748Z" stroke="#F3EEFC" stroke-width="1.73913" stroke-linecap="round" stroke-linejoin="round"/>
<path d="M9.78101 5.8748H13.694C14.2706 5.8748 14.8235 5.64577 15.2312 5.23808C15.6389 4.83039 15.868 4.27745 15.868 3.70089C15.868 3.12433 15.6389 2.57139 15.2312 2.1637C14.8235 1.75601 14.2706 1.52698 13.694 1.52698C10.6506 1.52698 9.78101 5.8748 9.78101 5.8748Z" stroke="#F3EEFC" stroke-width="1.73913" stroke-linecap="round" stroke-linejoin="round"/>
</svg>
