<svg width="321" height="21" viewBox="0 0 321 21" fill="none" xmlns="http://www.w3.org/2000/svg">
<path d="M3.00451 3.76611H16.9176C17.8741 3.76611 18.6567 4.54872 18.6567 5.50524V15.94C18.6567 16.8965 17.8741 17.6792 16.9176 17.6792H3.00451C2.04799 17.6792 1.26538 16.8965 1.26538 15.94V5.50524C1.26538 4.54872 2.04799 3.76611 3.00451 3.76611Z" stroke="#6F25F5" stroke-width="1.73913" stroke-linecap="round" stroke-linejoin="round"/>
<path d="M18.6567 5.50525L9.96103 11.5922L1.26538 5.50525" stroke="#6F25F5" stroke-width="1.73913" stroke-linecap="round" stroke-linejoin="round"/>
<path d="M77.7656 2.40478L60.9017 9.32327C59.8894 9.73858 59.9555 11.1939 61.0013 11.5157L63.6459 12.3294C64.8002 12.6846 66.0525 12.51 67.0657 11.8528L74.7241 6.88528C74.9018 6.77003 75.0931 7.01082 74.9406 7.15782L69.1106 12.7796C68.582 13.2893 68.6507 14.155 69.2532 14.5749L75.3989 18.8582C76.4619 19.5991 77.9332 18.9668 78.1273 17.6858L80.1579 4.28428C80.3614 2.94115 79.0224 1.88916 77.7656 2.40478Z" fill="#6F25F5"/>
<path d="M125.081 20.0113V7.58484H121.216V20.0113H125.081ZM123.128 5.92244C124.375 5.92244 125.372 4.88344 125.372 3.63664C125.372 2.4314 124.375 1.43396 123.128 1.43396C121.922 1.43396 120.925 2.4314 120.925 3.63664C120.925 4.88344 121.922 5.92244 123.128 5.92244ZM139.502 20.0113H139.544V13.1954C139.544 9.87064 138.796 7.29392 134.889 7.29392C133.019 7.29392 131.772 8.33292 131.232 9.2888H131.19V7.58484H127.492V20.0113H131.357V13.8604C131.357 12.2396 131.648 10.7018 133.642 10.7018C135.637 10.7018 135.679 12.5305 135.679 13.9851V20.0113H139.502Z" fill="#6F25F5"/>
<path d="M198.014 6.78136C198.763 6.21562 199.437 5.53673 199.961 4.74469C199.287 5.04642 198.501 5.27272 197.715 5.34815C198.538 4.85784 199.137 4.10352 199.437 3.16062C198.688 3.61321 197.827 3.95266 196.966 4.14124C196.217 3.3492 195.206 2.89661 194.083 2.89661C191.912 2.89661 190.152 4.66926 190.152 6.8568C190.152 7.15852 190.19 7.46025 190.265 7.76198C187.008 7.5734 184.088 5.98933 182.141 3.61321C181.804 4.17895 181.617 4.85784 181.617 5.61216C181.617 6.96995 182.291 8.17686 183.376 8.89347C182.74 8.85575 182.103 8.70488 181.579 8.40315V8.44087C181.579 10.3644 182.927 11.9484 184.724 12.3256C184.425 12.401 184.05 12.4765 183.713 12.4765C183.451 12.4765 183.227 12.4388 182.964 12.401C183.451 13.9851 184.911 15.1166 186.633 15.1543C185.286 16.2103 183.601 16.8516 181.766 16.8516C181.43 16.8516 181.13 16.8138 180.831 16.7761C182.553 17.9076 184.612 18.5488 186.858 18.5488C194.083 18.5488 198.014 12.5519 198.014 7.30939C198.014 7.12081 198.014 6.96995 198.014 6.78136Z" fill="#6F25F5"/>
<path d="M242.902 6.23856V14.7306C242.942 15.0084 242.863 15.3258 242.666 15.5639L240.655 17.9846V18.302H246.333V17.9846L244.322 15.5639C244.085 15.3258 244.007 15.0084 244.046 14.7306V7.38935L249.015 18.3417H249.607L253.905 7.38935V16.0798C253.905 16.3179 253.905 16.3576 253.747 16.5163L252.209 18.0243V18.3417H259.702V18.0243L258.204 16.556C258.085 16.4767 258.006 16.2782 258.046 16.1195V5.32586C258.006 5.16713 258.085 5.0084 258.204 4.92904L259.702 3.46078V3.10364H254.457L250.671 12.5481L246.412 3.10364H240.891V3.46078L242.666 5.60364C242.824 5.76237 242.942 6.00047 242.902 6.23856Z" fill="#6F25F5"/>
<path fill-rule="evenodd" clip-rule="evenodd" d="M310.194 20.7227C315.71 20.7144 320.178 16.2404 320.178 10.7227C320.178 5.19981 315.701 0.722656 310.178 0.722656C304.656 0.722656 300.178 5.19981 300.178 10.7227C300.178 16.2404 304.647 20.7144 310.163 20.7227C310.168 20.7227 310.173 20.7227 310.178 20.7227M307.903 3.05088C304.902 3.93956 302.637 6.541 302.24 9.72266H305.632C305.84 7.34079 306.623 5.05245 307.903 3.05088ZM312.454 3.05088C313.734 5.05245 314.517 7.34079 314.725 9.72266H318.117C317.72 6.541 315.455 3.93956 312.454 3.05088ZM312.716 9.72266C312.479 7.38273 311.601 5.15379 310.178 3.28265C308.756 5.15379 307.877 7.38273 307.64 9.72266H312.716ZM307.64 11.7227H312.716C312.48 14.0627 311.601 16.2917 310.178 18.1629C308.756 16.2917 307.877 14.0627 307.64 11.7227ZM305.632 11.7227H302.24C302.637 14.9043 304.902 17.5057 307.903 18.3944C306.623 16.3929 305.84 14.1045 305.632 11.7227ZM312.454 18.3944C313.734 16.3929 314.517 14.1045 314.725 11.7227H318.117C317.72 14.9043 315.455 17.5057 312.454 18.3944Z" fill="#6F25F5"/>
</svg>
