<svg width="261" height="97" viewBox="0 0 261 97" fill="none" xmlns="http://www.w3.org/2000/svg">
<path d="M55.759 86.3032C53.3183 88.744 53.3183 92.7013 55.759 95.1421C58.1998 97.5828 62.1571 97.5828 64.5979 95.1421L55.759 86.3032ZM111.963 56.5505L108.059 61.4309L111.963 56.5505ZM126.799 68.4195L122.895 73.2999H122.895L126.799 68.4195ZM146.009 66.7884L141.338 62.6361L146.009 66.7884ZM197.85 17.8749C200.143 15.295 199.911 11.3446 197.331 9.05135C194.751 6.75811 190.8 6.99049 188.507 9.57038L197.85 17.8749ZM136.954 74.0799L137.483 80.3075H137.483L136.954 74.0799ZM102.311 51.1133L102.656 57.3538H102.657L102.311 51.1133ZM172.178 0.472656C168.727 0.472656 165.928 3.27088 165.928 6.72266C165.928 10.1744 168.727 12.9727 172.178 12.9727V0.472656ZM193.928 34.7227C193.928 38.1745 196.727 40.9727 200.178 40.9727C203.63 40.9727 206.428 38.1745 206.428 34.7227H193.928ZM198.128 8.77291L202.548 4.35349V4.35349L198.128 8.77291ZM81.1785 14.4727C77.7267 14.4727 74.9285 17.2709 74.9285 20.7227C74.9285 24.1744 77.7267 26.9727 81.1785 26.9727V14.4727ZM123.178 26.9727C126.63 26.9727 129.428 24.1744 129.428 20.7227C129.428 17.2709 126.63 14.4727 123.178 14.4727V26.9727ZM64.5979 95.1421L97.7374 62.0026L88.8986 53.1637L55.759 86.3032L64.5979 95.1421ZM108.059 61.4309L122.895 73.2999L130.704 63.539L115.868 51.67L108.059 61.4309ZM150.68 70.9407L197.85 17.8749L188.507 9.57038L141.338 62.6361L150.68 70.9407ZM122.895 73.2999C125.218 75.1582 127.431 76.9452 129.442 78.1607C131.606 79.4696 134.26 80.5811 137.483 80.3075L136.425 67.8523C136.864 67.815 136.898 68.0619 135.91 67.4642C134.767 66.7733 133.295 65.6119 130.704 63.539L122.895 73.2999ZM141.338 62.6361C139.133 65.1162 137.878 66.5091 136.868 67.3829C135.995 68.1386 135.986 67.8896 136.425 67.8523L137.483 80.3075C140.705 80.0338 143.134 78.4908 145.047 76.8357C146.823 75.2987 148.704 73.164 150.68 70.9407L141.338 62.6361ZM97.7374 62.0026C99.9621 59.7779 101.218 58.5392 102.215 57.7689C103.071 57.1072 103.069 57.3309 102.656 57.3538L101.965 44.8729C98.8816 45.0437 96.4906 46.395 94.5718 47.8777C92.7938 49.2515 90.8885 51.1738 88.8986 53.1637L97.7374 62.0026ZM115.868 51.67C113.67 49.912 111.564 48.2119 109.645 47.0428C107.575 45.7811 105.049 44.7021 101.965 44.8729L102.657 57.3538C102.244 57.3766 102.217 57.1545 103.141 57.7175C104.217 58.3731 105.602 59.4655 108.059 61.4309L115.868 51.67ZM172.178 12.9727H186.178V0.472656H172.178V12.9727ZM193.928 20.7227V34.7227H206.428V20.7227H193.928ZM186.178 12.9727C189.655 12.9727 191.634 12.9859 193.027 13.1732C194.24 13.3363 194.038 13.522 193.709 13.1923L202.548 4.35349C200.168 1.97356 197.291 1.13413 194.692 0.78467C192.273 0.459383 189.302 0.472656 186.178 0.472656V12.9727ZM206.428 20.7227C206.428 17.5995 206.442 14.6284 206.116 12.209C205.767 9.60971 204.928 6.73343 202.548 4.35349L193.709 13.1923C193.379 12.8626 193.565 12.6614 193.728 13.8745C193.915 15.2675 193.928 17.2461 193.928 20.7227H206.428ZM81.1785 26.9727H123.178V14.4727H81.1785V26.9727Z" fill="#6F25F5" fill-opacity="0.8"/>
</svg>
